nColumns=19
nRows=58
DataType=double
version=3
OpenSimVersion=4.1
endheader
time	ground_force_calcn_r_vx	ground_force_calcn_r_vy	ground_force_calcn_r_vz	ground_force_calcn_r_px	ground_force_calcn_r_py	ground_force_calcn_r_pz	ground_force_calcn_r_mx	ground_force_calcn_r_my	ground_force_calcn_r_mz	ground_force_calcn_l_vx	ground_force_calcn_l_vy	ground_force_calcn_l_vz	ground_force_calcn_l_px	ground_force_calcn_l_py	ground_force_calcn_l_pz	ground_force_calcn_l_mx	ground_force_calcn_l_my	ground_force_calcn_l_mz
0.01	7.74298	37.0573	9.13553	0.00295137	0	-0.152471	0.141023	0.674923	0.166385	0	0	0	0	0	0	0	0	0
0.02	7.88082	59.5005	11.6206	0.021458	0	-0.154173	0.0855594	0.645977	0.126161	0	0	0	0	0	0	0	0	0
0.03	7.42605	87.1142	14.3452	0.0326697	0	-0.154447	0.0514035	0.603008	0.0992984	0	0	0	0	0	0	0	0	0
0.04	6.16125	120.011	17.2041	0.0406996	0	-0.154273	0.0277362	0.540254	0.0774481	0	0	0	0	0	0	0	0	0
0.05	3.83991	157.98	20.0446	0.0471238	0	-0.153912	0.0109659	0.451157	0.0572429	0	0	0	0	0	0	0	0	0
0.06	0.251242	200.533	22.6755	0.0526878	0	-0.153439	0.000412529	0.329267	0.0372324	0	0	0	0	0	0	0	0	0
0.07	-4.67808	247.027	24.8645	0.0577809	0	-0.152862	-0.00319568	0.168749	0.0169854	0	0	0	0	0	0	0	0	0
0.08	-10.868	296.728	26.3465	0.062608	0	-0.152168	0.0012519	-0.0341807	-0.0030349	0	0	0	0	0	0	0	0	0
0.09	-18.1422	348.748	26.8459	0.0672809	0	-0.151344	0.0145675	-0.280032	-0.0215563	0	0	0	0	0	0	0	0	0
0.1	-26.2786	402.002	26.1185	0.0718635	0	-0.150388	0.0369392	-0.565083	-0.0367141	0	0	0	0	0	0	0	0	0
0.11	-35.0175	455.235	24.0048	0.0763885	0	-0.149313	0.0677025	-0.880147	-0.0464107	0	0	0	0	0	0	0	0	0
0.12	-44.0543	507.121	20.4758	0.0808695	0	-0.148141	0.105027	-1.20899	-0.0488151	0	0	0	0	0	0	0	0	0
0.13	-53.0461	556.335	15.6603	0.0852984	0	-0.14691	0.145748	-1.52857	-0.0430277	0	0	0	0	0	0	0	0	0
0.14	-61.6265	601.612	9.8432	0.0896619	0	-0.14566	0.185606	-1.81193	-0.0296456	0	0	0	0	0	0	0	0	0
0.15	-69.4266	641.83	3.42472	0.0939409	0	-0.14443	0.220035	-2.03417	-0.010854	0	0	0	0	0	0	0	0	0
0.16	-76.1118	676.107	-3.14972	0.0981244	0	-0.143256	0.245251	-2.17858	0.0101492	0	0	0	0	0	0	0	0	0
0.17	-81.4178	703.861	-9.45815	0.102207	0	-0.142161	0.259039	-2.23941	0.0300921	0	0	0	0	0	0	0	0	0
0.18	-85.1813	724.835	-15.1601	0.106197	0	-0.141157	0.261087	-2.22167	0.0464668	0	0	0	0	0	0	0	0	0
0.19	-87.3652	739.093	-20.0234	0.110113	0	-0.140242	0.252734	-2.13808	0.0579245	0	0	0	0	0	0	0	0	0
0.2	-88.0375	746.974	-23.9154	0.113984	0	-0.139412	0.23619	-2.004	0.0641611	0	0	0	0	0	0	0	0	0
0.21	-87.3366	749.046	-26.7877	0.117844	0	-0.138655	0.213885	-1.8344	0.0656025	0	0	0	0	0	0	0	0	0
0.22	-85.4409	746.057	-28.6613	0.121724	0	-0.137961	0.188144	-1.64285	0.0631134	0	0	0	0	0	0	0	0	0
0.23	-82.5424	738.887	-29.6098	0.12565	0	-0.137322	0.160981	-1.44104	0.0577474	0	0	0	0	0	0	0	0	0
0.24	-78.8337	728.475	-29.7437	0.129644	0	-0.136728	0.134065	-1.23885	0.0505825	0	0	0	0	0	0	0	0	0
0.25	-74.5077	715.753	-29.2041	0.133721	0	-0.13617	0.108794	-1.04512	0.042643	0	0	0	0	0	0	0	0	0
0.26	-69.7548	701.602	-28.158	0.137889	0	-0.135642	0.0862979	-0.867995	0.0348361	0	0	0	0	0	0	0	0	0
0.27	-64.7517	686.818	-26.7842	0.142152	0	-0.135136	0.0673564	-0.714445	0.0278616	0	0	0	0	0	0	0	0	0
0.28	-59.6523	672.089	-25.2475	0.14651	0	-0.134644	0.0523503	-0.589819	0.022157	0	0	0	0	0	0	0	0	0
0.29	-54.5827	657.991	-23.6758	0.150953	0	-0.134166	0.0412847	-0.497685	0.0179077	0	0	0	0	0	0	0	0	0
0.3	-49.6356	644.988	-22.1496	0.155467	0	-0.133706	0.0338692	-0.440112	0.015114	0	0	0	0	0	0	0	0	0
0.31	-44.8635	633.445	-20.7087	0.160032	0	-0.133274	0.0296101	-0.418077	0.0136678	0	0	0	0	0	0	0	0	0
0.32	-40.2795	623.637	-19.3688	0.164623	0	-0.132881	0.02786	-0.43135	0.0133968	0	0	0	0	0	0	0	0	0
0.33	-35.869	615.759	-18.1406	0.169213	0	-0.132537	0.0278654	-0.478362	0.0140928	0	0	0	0	0	0	0	0	0
0.34	-31.6023	609.93	-17.0414	0.17378	0	-0.132251	0.0288217	-0.556263	0.015542	0	0	0	0	0	0	0	0	0
0.35	-27.4417	606.212	-16.0959	0.178312	0	-0.132026	0.0299265	-0.661103	0.0175534	0	0	0	0	0	0	0	0	0
0.36	-23.3436	604.631	-15.3305	0.182801	0	-0.131865	0.0304339	-0.788281	0.0199869	0	0	0	0	0	0	0	0	0
0.37	-19.2603	605.211	-14.7666	0.187248	0	-0.131766	0.0296979	-0.933186	0.0227689	0	0	0	0	0	0	0	0	0
0.38	-15.1435	607.989	-14.4157	0.191664	0	-0.13173	0.0271913	-1.09169	0.0258844	0	0	0	0	0	0	0	0	0
0.39	-10.9457	613.022	-14.2769	0.196058	0	-0.131757	0.0225062	-1.26047	0.0293556	0	0	0	0	0	0	0	0	0
0.4	-6.62057	620.368	-14.3384	0.200442	0	-0.131847	0.0153339	-1.43684	0.0332091	0	0	0	0	0	0	0	0	0
0.41	-2.12406	630.059	-14.581	0.204827	0	-0.131998	0.00545529	-1.6182	0.037449	0	0	0	0	0	0	0	0	0
0.42	2.58286	642.073	-14.9818	0.20922	0	-0.132208	-0.00724732	-1.80161	0.0420378	0	0	0	0	0	0	0	0	0
0.43	7.53293	656.306	-15.515	0.213623	0	-0.132474	-0.0227624	-1.98318	0.0468819	0	0	0	0	0	0	0	0	0
0.44	12.7554	672.551	-16.1531	0.218028	0	-0.132787	-0.0409266	-2.15792	0.0518282	0	0	0	0	0	0	0	0	0
0.45	18.281	690.48	-16.867	0.222422	0	-0.13314	-0.0614263	-2.32009	0.0566748	0	0	0	0	0	0	0	0	0
0.46	24.1437	709.637	-17.6242	0.226783	0	-0.133523	-0.0838243	-2.46378	0.0611894	0	0	0	0	0	0	0	0	0
0.47	30.3772	729.423	-18.3893	0.231087	0	-0.133927	-0.107599	-2.58369	0.0651368	0	0	0	0	0	0	0	0	0
0.48	37.0064	749.103	-19.1243	0.235307	0	-0.134342	-0.132162	-2.67528	0.068299	0	0	0	0	0	0	0	0	0
0.49	44.0358	767.827	-19.7913	0.239424	0	-0.134761	-0.156843	-2.73479	0.0704913	0	0	0	0	0	0	0	0	0
0.5	51.4368	784.66	-20.3505	0.243423	0	-0.135176	-0.180909	-2.75974	0.0715753	0	0	0	0	0	0	0	0	0
0.51	59.1447	798.62	-20.7575	0.247295	0	-0.135581	-0.203638	-2.74969	0.0714691	0	0	0	0	0	0	0	0	0
0.52	67.0526	808.729	-20.9652	0.251036	0	-0.135975	-0.224395	-2.70645	0.0701612	0	0	0	0	0	0	0	0	0
0.53	75.0085	814.035	-20.929	0.254648	0	-0.136356	-0.24269	-2.63381	0.0677157	0	0	0	0	0	0	0	0	0
0.54	82.8135	813.654	-20.6084	0.258138	0	-0.136724	-0.258246	-2.53731	0.0642656	1.273	26.7247	-9.05279	0.717109	0	-0.174773	-0.00902633	-0.189494	0.0641897
0.55	90.2198	806.797	-19.9713	0.261518	0	-0.137082	-0.271011	-2.42354	0.0599919	-0.773808	50.4858	-10.9797	0.766973	0	-0.199493	1.41782e-05	-0.000925031	0.000201176
0.56	96.937	792.809	-18.9969	0.264801	0	-0.137432	-0.281117	-2.29914	0.0550909	-3.75251	80.4182	-13.0231	0.789026	0	-0.210549	-0.00456964	0.0979296	-0.0158589
0.57	102.646	771.218	-17.6773	0.268006	0	-0.137779	-0.288823	-2.17004	0.04974	-7.83658	116.896	-15.0794	0.802063	0	-0.216778	-0.0115147	0.171762	-0.022157
0.58	107.011	741.789	-16.0197	0.271152	0	-0.138126	-0.294421	-2.0409	0.0440753	-13.1901	159.961	-16.9996	0.811094	0	-0.220815	-0.0201555	0.244433	-0.0259768
